<?xml version="1.0" standalone="no"?>
<!DOCTYPE svg PUBLIC "-//W3C//DTD SVG 20010904//EN"
 "http://www.w3.org/TR/2001/REC-SVG-20010904/DTD/svg10.dtd">
<svg version="1.0" xmlns="http://www.w3.org/2000/svg"
 width="512.000000pt" height="512.000000pt" viewBox="0 0 512.000000 512.000000"
 preserveAspectRatio="xMidYMid meet">

<g transform="translate(0.000000,512.000000) scale(0.100000,-0.100000)"
fill="#000000" stroke="none">
<path d="M2195 5106 c-59 -27 -60 -31 -63 -376 -2 -173 0 -335 3 -359 20 -136
190 -136 210 0 3 24 5 186 3 359 -3 349 -5 356 -70 379 -39 14 -46 13 -83 -3z"/>
<path d="M1131 4666 c-49 -27 -66 -99 -35 -146 24 -36 422 -437 468 -471 54
-40 104 -40 145 2 42 41 42 91 2 145 -34 46 -435 444 -471 468 -29 19 -76 20
-109 2z"/>
<path d="M3224 4651 c-46 -34 -444 -435 -468 -471 -9 -13 -16 -41 -16 -61 0
-78 94 -126 160 -83 36 24 437 422 471 468 83 112 -35 230 -147 147z"/>
<path d="M725 3623 c-88 -23 -111 -140 -37 -190 24 -16 56 -18 342 -21 173 -2
335 0 359 3 116 17 141 157 35 201 -26 11 -101 14 -356 13 -178 -1 -332 -4
-343 -6z"/>
<path d="M2214 3623 c-12 -2 -34 -18 -50 -34 l-29 -30 -3 -1492 c-2 -1065 0
-1503 8 -1530 12 -42 58 -77 101 -77 34 0 56 15 352 247 225 176 252 194 263
179 7 -10 117 -206 244 -435 240 -432 253 -451 314 -451 14 0 178 76 366 170
371 185 387 196 376 268 -3 18 -106 215 -229 437 l-225 404 358 3 358 3 26 24
c35 33 44 85 22 126 -24 44 -2168 2185 -2188 2185 -9 0 -22 2 -30 4 -7 2 -23
1 -34 -1z m1577 -2133 c-294 -5 -321 -6 -340 -24 -30 -27 -44 -77 -31 -110 5
-15 114 -214 240 -441 127 -228 233 -421 236 -429 4 -11 -50 -43 -216 -126
-122 -61 -223 -110 -225 -108 -2 2 -110 196 -240 433 -130 237 -250 442 -266
458 -35 32 -91 37 -129 10 -14 -10 -108 -82 -210 -162 -102 -79 -202 -157
-222 -173 l-38 -30 0 1234 0 1233 880 -880 880 -880 -319 -5z"/>
<path d="M3054 3616 c-104 -46 -78 -184 37 -201 24 -3 186 -5 359 -3 286 3
318 5 342 21 58 39 58 135 0 174 -25 16 -56 18 -367 20 -272 2 -346 0 -371
-11z"/>
<path d="M1564 2991 c-46 -34 -444 -435 -468 -471 -60 -91 53 -204 144 -144
36 24 437 422 471 468 40 54 40 104 -2 145 -41 42 -91 42 -145 2z"/>
</g>
</svg>
